/* XPM */
static char *grass_sprite[] = {
/* columns rows colors chars-per-pixel */
"32 32 133 2 ",
"   c black",
".  c #000100",
"X  c #000200",
"o  c #000300",
"O  c #000400",
"+  c #000500",
"@  c #000600",
"#  c #000700",
"$  c #000800",
"%  c #000900",
"&  c #000A00",
"*  c #000B00",
"=  c #000C00",
"-  c #000D00",
";  c #000D01",
":  c #000F01",
">  c #001001",
",  c #001101",
"<  c #001201",
"1  c #001301",
"2  c #001401",
"3  c #001501",
"4  c #001601",
"5  c #001701",
"6  c #001801",
"7  c #001A01",
"8  c #001B01",
"9  c #001C01",
"0  c #001D01",
"q  c #001E01",
"w  c #011E02",
"e  c #011F02",
"r  c #012102",
"t  c #012202",
"y  c #012302",
"u  c #012402",
"i  c #012502",
"p  c #012603",
"a  c #012703",
"s  c #012803",
"d  c #012903",
"f  c #012A03",
"g  c #012B03",
"h  c #022C03",
"j  c #022D03",
"k  c #022E03",
"l  c #022F03",
"z  c #022F04",
"x  c #023004",
"c  c #023104",
"v  c #023204",
"b  c #023304",
"n  c #023404",
"m  c #023505",
"M  c #023605",
"N  c #023705",
"B  c #023805",
"V  c #033905",
"C  c #033A05",
"Z  c #033B06",
"A  c #033C06",
"S  c #033D06",
"D  c #033E06",
"F  c #034007",
"G  c #034107",
"H  c #034207",
"J  c #034307",
"K  c #034508",
"L  c #034608",
"P  c #034708",
"I  c #044809",
"U  c #044A09",
"Y  c #044B09",
"T  c #044C09",
"R  c #044D09",
"E  c #044F0A",
"W  c #04500A",
"Q  c #04500B",
"!  c #05520B",
"~  c #05540B",
"^  c #05560C",
"/  c #05570C",
"(  c #05580D",
")  c #065B0E",
"_  c #065C0E",
"`  c #065E0E",
"'  c #07600F",
"]  c #07620F",
"[  c #076310",
"{  c #076410",
"}  c #076510",
"|  c #076611",
" . c #086711",
".. c #086911",
"X. c #086B12",
"o. c #086C12",
"O. c #096C12",
"+. c #096F13",
"@. c #097113",
"#. c #0A7113",
"$. c #0A7414",
"%. c #0A7514",
"&. c #0A7715",
"*. c #0A7815",
"=. c #0A7915",
"-. c #0A7B16",
";. c #0A7C17",
":. c #0B7F17",
">. c #0C8118",
",. c #0C8119",
"<. c #0D8319",
"1. c #0D8519",
"2. c #0E8619",
"3. c #0F8819",
"4. c #0F8A19",
"5. c #0F8C19",
"6. c #0F8D19",
"7. c #0F8E1A",
"8. c #0F901B",
"9. c #0F911D",
"0. c #0F931E",
"q. c #0F941E",
"w. c #0F951E",
"e. c #0F971E",
"r. c #0F991E",
"t. c #0F9B1E",
"y. c #0F9E1E",
"u. c #139E1E",
"i. c #14A31E",
"p. c #14A323",
"a. c #14A523",
"s. c #14A823",
"d. c #14AD23",
/* pixels */
"d.d.d.d.d.d.d.d.d.d.d.d.d.d.d.d.d.d.d.d.d.d.d.d.d.d.d.d.d.d.d.d.",
"d.d.d.d.d.d.d.d.d.d.d.d.d.d.d.d.d.d.d.d.d.d.d.d.d.d.d.d.d.d.d.d.",
"d.d.d.d.d.d.d.d.d.d.d.d.d.d.d.d.d.d.d.d.d.d.d.d.d.d.d.d.d.d.d.d.",
"d.d.d.d.d.d.d.d.d.d.r.d.d.d.d.d.i.:.d.d.d.d.d.d.d.d.d.d.d.d.d.d.",
"d.d.d.d.d.d.d.d.d.6.M $.3.s.d.s.! = &.a.d.d.d.d.d.d.d.d.d.d.d.d.",
"d.d.d.d.d.d.d.d.d.b   = g } 3.o.# G = ] 1.=.>.} d.d.d.d.d.d.d.d.",
"d.d.d.d.d.d.d.d.d.< p.i.T # < 3 $.d.3.< = = 3   d.d.d.d.d.d.d.d.",
"d.d.d.d.s.e.6.6.0.* d.~ Z >.# 6.1.u.e.0.# } ;.3 d.d.d.d.d.d.d.d.",
"d.d.d.d.O.b j b Z # &.< g Z 6 E g [ J =.  w G # 7.d.d.d.d.d.d.d.",
"d.d.d.d.* # T O.Y M < # w # w j 6 Z w &.  < K   k 3.d.d.d.d.d.d.",
"d.d.d.d.# K d.a.i.O.~ G     * M g b M o.  < M [ r e 1.d.d.d.d.d.",
"d.d.d.d.< H d.8.$.M # a S 3   E j F _ 3   M Y r.d.r = d.d.d.d.d.",
"d.d.d.d.S < p.s.E f < < 6 M k ~ j F K   k b M ;.d. .# d.d.d.d.d.",
"d.d.d.s.&.  ) 1.K k f y f K Q   y S   w a k ! :.>.< E d.d.d.d.d.",
"d.d.d.e.b a = g K f b T D r w   j ;.  g a r I } = a d.d.d.d.d.d.",
"d.d.d.g < p.F < #   * * * # 3 6 j j       * * 6   7.d.d.d.d.d.d.",
"d.d.d.  o.;.Y M * T ' e 7 < b : } Z w j   M o.d.M k d.d.d.d.d.d.",
"d.d.d.6 w S Z * >.3.k Z 7 7 Z   Q M < _   b d.d.8.  d.d.d.d.d.d.",
"d.d.d.d.#.M M   p.d.D K M K =   K y 6 y < T >.1.) # d.d.d.d.d.d.",
"d.d.d.d.d.d.d.# O.i.0.0.' r   k g j j F k   6 y =  .d.d.d.d.d.d.",
"d.d.d.d.d.d.d.F = u.6._ # e V K * ] T o.i.# o.6.d.d.d.d.d.d.d.d.",
"d.d.d.d.d.d.d.y.  F w   # ' q.9.g w e.a.s.* d.d.d.d.d.d.d.d.d.d.",
"d.d.d.d.d.d.d.d.S   6 &.1.= ;.4.T   Z >.1.# d.d.d.d.d.d.d.d.d.d.",
"d.d.d.d.d.d.d.d.d.0.d.d.d.~ = 3   Z a 6 6   d.d.d.d.d.d.d.d.d.d.",
"d.d.d.d.d.d.d.d.d.d.d.d.d.d.T # =.d.d.4.A J d.d.d.d.d.d.d.d.d.d.",
"d.d.d.d.d.d.d.d.d.d.d.d.d.d.d.d.d.d.d.d.d.d.d.d.d.d.d.d.d.d.d.d.",
"d.d.d.d.d.d.d.d.d.d.d.d.d.d.d.d.d.d.d.d.d.d.d.d.d.d.d.d.d.d.d.d.",
"d.d.d.d.d.d.d.d.d.d.d.d.d.d.d.d.d.d.d.d.d.d.d.d.d.d.d.d.d.d.d.d.",
"d.d.d.d.d.d.d.d.d.d.d.d.d.d.d.d.d.d.d.d.d.d.d.d.d.d.d.d.d.d.d.d.",
"d.d.d.d.d.d.d.d.d.d.d.d.d.d.d.d.d.d.d.d.d.d.d.d.d.d.d.d.d.d.d.d.",
"d.d.d.d.d.d.d.d.d.d.d.d.d.d.d.d.d.d.d.d.d.d.d.d.d.d.d.d.d.d.d.d.",
"d.d.d.d.d.d.d.d.d.d.d.d.d.d.d.d.d.d.d.d.d.d.d.d.d.d.d.d.d.d.d.d."
};
