/* XPM */
static char *wall[] = {
/* columns rows colors chars-per-pixel */
"64 64 164 2 ",
"   c #5F7A79",
".  c #6B7674",
"X  c #647877",
"o  c #717672",
"O  c #7E7576",
"+  c #767872",
"@  c #787A72",
"#  c #8E615F",
"$  c #91625D",
"%  c #9B6D5E",
"&  c #A6775C",
"*  c #AB7B5A",
"=  c #965372",
"-  c #995674",
";  c #8C6062",
":  c #836A67",
">  c #8B6D65",
",  c #926765",
"<  c #926865",
"1  c #967563",
"2  c #9D7162",
"3  c #9B7963",
"4  c #846573",
"5  c #866975",
"6  c #926775",
"7  c #9F6E75",
"8  c #8B7177",
"9  c #867F77",
"0  c #8E7A76",
"q  c #8E7679",
"w  c #837E79",
"e  c #8F797A",
"r  c #9D7476",
"t  c #987379",
"y  c #937E7B",
"u  c #9D7D7C",
"i  c #A27763",
"p  c #A77B62",
"a  c #AA7F64",
"s  c #A46177",
"d  c #AB6276",
"f  c #AE6779",
"g  c #A76979",
"h  c #AC6C79",
"j  c #B16877",
"k  c #B56D7A",
"l  c #B96F7B",
"z  c #A7777C",
"x  c #AA747C",
"c  c #A47B79",
"v  c #AE7F7D",
"b  c #B6727D",
"n  c #BC737D",
"m  c #B6797D",
"M  c #B87B7D",
"N  c #63827A",
"B  c #66887A",
"V  c #6B8E7C",
"C  c #768779",
"Z  c #718D7E",
"A  c #7A8D7A",
"S  c #6E967C",
"D  c #71927D",
"F  c #7E907C",
"G  c #72997D",
"H  c #7B9C7F",
"J  c #B1825E",
"K  c #8E837A",
"L  c #95827C",
"P  c #918B7F",
"I  c #9C8A7D",
"U  c #83927C",
"Y  c #9E927F",
"T  c #AD8061",
"R  c #A8806A",
"E  c #B38561",
"W  c #B68963",
"Q  c #B98D64",
"!  c #BD9167",
"~  c #BD936B",
"^  c #A7827C",
"/  c #AB827E",
"(  c #AA8B7E",
")  c #B2877F",
"_  c #B38A7F",
"`  c #BA9270",
"'  c #C1976A",
"]  c #C3996C",
"[  c #B77580",
"{  c #BB7680",
"}  c #BE7C84",
"|  c #C27C84",
" . c #749280",
".. c #799681",
"X. c #779E80",
"o. c #7A9B82",
"O. c #7AA181",
"+. c #8C9F83",
"@. c #959582",
"#. c #9A9982",
"$. c #AD8280",
"%. c #AF8E80",
"&. c #B38583",
"*. c #B38A82",
"=. c #B88D86",
"-. c #A59582",
";. c #A39B83",
":. c #AB9E85",
">. c #B49380",
",. c #BB9286",
"<. c #BF988A",
"1. c #83A486",
"2. c #8BA384",
"3. c #85AA86",
"4. c #89AE87",
"5. c #8BAD89",
"6. c #92A586",
"7. c #9BA987",
"8. c #95AD89",
"9. c #9BAD89",
"0. c #8EB28A",
"q. c #92B58C",
"w. c #9AB58C",
"e. c #97BB8E",
"r. c #99BC8F",
"t. c #A8A185",
"y. c #ADA488",
"u. c #A2A989",
"i. c #AEAE8B",
"p. c #B4A988",
"a. c #B8AC88",
"s. c #A1B68D",
"d. c #A3BC8F",
"f. c #B2B08D",
"g. c #BBB78C",
"h. c #BEB98E",
"j. c #A5BC90",
"k. c #ADBE90",
"l. c #C1858A",
"z. c #C9878C",
"x. c #C58B8C",
"c. c #CB8B8D",
"v. c #C0998A",
"b. c #CE9997",
"n. c #D29496",
"m. c #D19E98",
"M. c #D89D9B",
"N. c #E0A8A3",
"B. c #9DC191",
"V. c #A2C693",
"C. c #ADC492",
"Z. c #A5CA94",
"A. c #A9CE96",
"S. c #BBCB93",
"D. c #ABD097",
"F. c #AED499",
"G. c #B3D397",
"H. c #BFD094",
"J. c #B3D799",
"K. c #B6D999",
"L. c #BCDD9A",
"P. c #C1DF9A",
"I. c #C2E09A",
"U. c None",
/* pixels */
"U.U.U.U.U.U.U.U.U.U.U.U.U.U.U.U.U.U.U.U.U.U.U.U.U.U.U.U.U.U.U.U.U.U.U.U.U.U.U.U.U.U.U.U.U.U.U.U.U.U.U.U.U.U.U.U.U.U.U.U.U.U.U.U.",
"U.U.U.U.U.U.U.U.U.U.U.U.U.U.U.U.U.U.U.U.U.U.U.U.U.U.U.U.U.U.U.U.U.U.U.U.U.U.U.U.U.U.U.U.U.U.U.U.U.U.U.U.U.U.U.U.U.U.U.U.U.U.U.U.",
"U.U.U.U.U.U.U.U.U.U.U.U.U.U.U.U.U.U.U.U.U.U.U.U.                                    U.U.U.U.U.U.U.U.U.U.U.U.U.U.U.U.U.U.U.U.U.U.",
"U.U.U.U.U.U.U.U.U.U.U.U.U.U.U.U.U.U.U.U.U.U.U.U. . ...o.o.....o.o.....o... . . . .V U.U.U.U.U.U.U.U.U.U.U.U.U.U.U.U.U.U.U.U.U.U.",
"U.U.U.U.U.U.U.U.U.U.U.U.U.U.U.U.U.U.U.U.       .o.q.r.d.B.B.B.B.B.B.d.j.B.r.q.5.5.1. .  U.U.U.U.U.U.U.U.U.U.U.U.U.U.U.U.U.U.U.U.",
"U.U.U.U.U.U.U.U.U.U.U.U.U.U.U.U.U.U.U.U. . ...1.e.V.D.F.J.J.J.K.J.F.F.J.J.F.Z.V.B.e.o. .U.U.U.U.U.U.U.U.U.U.U.U.U.U.U.U.U.U.U.U.",
"U.U.U.U.U.U.U.U.U.U.U.U.U.U.U.U.       .o.0.r.B.A.D.F.J.L.L.L.L.L.L.J.J.L.L.L.J.D.V.q.1. .      U.U.U.U.U.U.U.U.U.U.U.U.U.U.U.U.",
"U.U.U.U.U.U.U.U.U.U.U.U.U.U.U.U. . . .1.e.V.D.F.D.F.F.F.L.I.I.I.I.L.J.J.L.I.P.L.J.A.V.q.o. . .V U.U.U.U.U.U.U.U.U.U.U.U.U.U.U.U.",
"U.U.U.U.U.U.U.U.U.U.U.U.U.U.  V +.0.e.B.A.D.F.F.F.F.J.J.L.I.I.I.I.L.J.J.L.I.I.L.J.F.D.V.q.0.4.1. .X U.U.U.U.U.U.U.U.U.U.U.U.U.U.",
"U.U.U.U.U.U.U.U.U.U.U.U.U.U. .+.e.V.D.J.J.J.J.J.F.F.J.K.L.I.I.P.L.L.J.J.K.L.P.K.J.J.F.D.V.B.B.q.o.V U.U.U.U.U.U.U.U.U.U.U.U.U.U.",
"U.U.U.U.U.U.U.U.U.U.U.U.   .O.q.V.J.K.L.L.L.L.L.J.J.L.L.I.I.P.P.K.J.F.F.J.J.J.J.F.F.F.F.D.A.A.V.q.1. .  U.U.U.U.U.U.U.U.U.U.U.U.",
"U.U.U.U.U.U.U.U.U.U.U.U. .o.5.B.D.J.P.I.I.I.I.L.K.K.L.I.I.I.L.K.J.F.F.F.J.J.K.K.J.J.F.F.F.F.F.A.B.0.o. .U.U.U.U.U.U.U.U.U.U.U.U.",
"U.U.U.U.U.U.U.U.U.U.   .o.5.e.B.A.J.K.I.I.I.I.I.L.L.I.I.P.P.K.J.F.F.F.J.L.L.L.L.L.K.J.G.D.F.G.A.B.e.5.1.V   U.U.U.U.U.U.U.U.U.U.",
"U.U.U.U.U.U.U.U.U.U.   .0.B.B.V.D.J.K.P.L.L.P.I.I.I.L.L.L.K.J.J.F.F.F.J.L.L.H.S.S.S.J.D.C.C.k.d.r.e.e.5. .  U.U.U.U.U.U.U.U.U.U.",
"U.U.U.U.U.U.U.U.U.U.   .r.A.D.D.F.F.J.J.K.K.L.I.I.L.K.K.J.J.F.F.F.F.F.K.L.P.p.>.,.a.S.S.p.( ( -.9.e.e.5. .  U.U.U.U.U.U.U.U.U.U.",
"U.U.U.U.U.U.U.U.U.U. .1.V.F.F.F.F.F.F.F.J.J.L.L.L.K.J.J.F.F.F.F.F.F.F.J.S.h.x.} } ,.h.g.=.j d c #.9.r.e.o.Z U.U.U.U.U.U.U.U.U.U.",
"U.U.U.U.U.U.U.U.  V +.q.Z.F.F.F.F.F.F.F.F.F.J.J.J.J.J.F.F.F.F.F.F.F.D.C.p.<.m.M.n.c.,._ m n l h t @.s.j.q.1. .  U.U.U.U.U.U.U.U.",
"U.U.U.U.U.U.U.U.   .3.B.D.F.F.F.F.F.F.F.F.F.F.F.F.F.F.F.F.F.F.D.F.F.J.C.( } M.N.M.c.{ k n n { k - @.j.A.B.5. .  U.U.U.U.U.U.U.U.",
"U.U.U.U.U.U.U.U.   .5.B.A.F.F.F.F.F.F.J.F.F.F.F.F.F.F.F.F.F.F.F.F.F.F.j.( [ n.M.c.| n n n n n j - y j.A.B.5. .  U.U.U.U.U.U.U.U.",
"U.U.U.U.U.U.U.U.   .5.r.Z.A.C.k.k.C.D.D.C.k.k.C.A.A.D.F.F.F.F.F.F.F.F.C.t.*.l.z.| n n n n n k g t @.r.A.r.1. .  U.U.U.U.U.U.U.U.",
"U.U.U.U.U.U.U.U.  V 5.e.B.s.:.*.>.y.C.C.y.%.$.;.s.V.A.F.F.F.F.F.F.F.F.D.C.i.*.k n n b k n k s t @.9.r.B.r.5. .  U.U.U.U.U.U.U.U.",
"U.U.U.U.U.U.U.U.   .5.w.9.y.=.&.} ,.f.i.&.j d c #.w.Z.J.F.F.F.F.F.F.F.F.D.C.;.c h f d d f h u @.8.e.e.e.0.1. .  U.U.U.U.U.U.U.U.",
"U.U.U.U.U.U.U.U.   .5.9.-.=.m.M.n.x.,./ m n k h t #.V.F.F.F.F.F.F.F.F.F.F.A.s.#.t - = = - u u.d.r.r.e.5.o. .U.U.U.U.U.U.U.U.U.U.",
"U.U.U.U.U.U.U.U.   .5.7.^ } M.N.M.c.n k n n n k - y w.A.A.A.A.D.D.F.F.F.A.Z.V.w.@.L y y e @.d.Z.B.e.e.5. .  U.U.U.U.U.U.U.U.U.U.",
"U.U.U.U.U.U.U.U.   .5.6.c [ n.M.c.| { l n n n k - 8 8.r.B.B.B.V.D.F.D.D.V.B.A.Z.V.j.j.w.8.8.r.B.r.r.e.5. .  U.U.U.U.U.U.U.U.U.U.",
"U.U.U.U.U.U.U.U.   .1.6.I $.l.z.| n n n { [ l h t @.8.e.e.e.r.B.Z.A.A.Z.B.B.Z.A.A.D.A.Z.B.r.e.e.e.r.e.0...Z U.U.U.U.U.U.U.U.U.U.",
"U.U.U.U.U.U.U.U.U.U. ...6.;./ l l n l k n k s 6 @.8.e.e.e.e.e.r.B.B.B.B.r.e.B.B.B.B.B.B.r.r.e.e.e.e.e.q.0.1. .  U.U.U.U.U.U.U.U.",
"U.U.U.U.U.U.U.U.U.U.   .5.7.#.c h f d d f g t @.8.e.e.e.e.e.e.e.e.e.e.e.e.e.e.e.e.e.e.e.e.e.e.e.e.e.e.e.e.5. .  U.U.U.U.U.U.U.U.",
"U.U.U.U.U.U.U.U.U.U.   .5.e.8.#.t - = = - t @.8.e.e.e.e.e.e.e.e.e.e.e.e.e.e.e.e.q.r.r.e.e.e.e.r.e.e.e.r.e.5. .  U.U.U.U.U.U.U.U.",
"U.U.U.U.U.U.U.U.U.U.X D 5.e.e.8.@.q q q 8 @.8.e.e.e.e.e.e.e.e.e.e.e.e.e.e.e.e.e.r.e.r.e.e.e.e.e.e.e.e.e.0.1.V   U.U.U.U.U.U.U.U.",
"U.U.U.U.U.U.U.U.  N B X.0.e.e.e.8.6.6.6.6.8.e.e.e.e.e.e.e.e.e.e.e.e.e.e.e.e.e.e.e.e.e.e.e.e.e.e.e.e.e.0.1.X.B   U.U.U.U.U.U.U.U.",
"U.U.U.U.U.U.U.U.  N S X.3.0.0.q.q.e.0.0.0.0.e.e.e.e.0.5.q.0.0.q.q.r.e.r.e.e.e.e.r.e.0.0.0.0.0.0.0.0.0.4.X.V N   U.U.U.U.U.U.U.U.",
"U.U.U.U.U.U.U.U.  N S G X.X.O.3.0.0.O.O.O.O.0.q.B.0.3.O.O.O.H 3.q.e.e.e.e.e.e.e.B.0.H H H O.O.O.O.O.O.G S S N   U.U.U.U.U.U.U.U.",
"U.U.U.U.U.U.U.U.  N V S S S S O.0.B.O.S G O.0.B.e.0.O.S S S S H 6.9.u.w.w.w.w.7.q.Y H G S G S S S S G G S V N   U.U.U.U.U.U.U.U.",
"U.U.U.U.U.U.U.U.  N V S S S S O.0.0.O.S G O.q.B.e.0.O.G S S S U I ^ ^ -.9.w.Y / c K F D S S S S S S S S S V N   U.U.U.U.U.U.U.U.",
"U.U.U.U.U.U.U.U.  N V G S S S X.4.O.X.S S X.O.0.0.4.O.O.O.H F I &.l.} &.:.;.v j d 7 K Z H O.O.H G S S S S V N   U.U.U.U.U.U.U.U.",
"U.U.U.U.U.U.U.U.  N V S S S S G O.X.X.S G G X.O.O.O.0.0.0.6.I &.m.M.n.x.&.) b l b h 6 9 3.0.0.4.X.S S S N N U.U.U.U.U.U.U.U.U.U.",
"U.U.U.U.U.U.U.U.  N V V S S S S O.O.O.O.O.O.G S S G 4.0.0.7.^ M M.N.M.c.n k n n n k - 8 2.0.0.4.X.S S S N N U.U.U.U.U.U.U.U.U.U.",
"U.U.U.U.U.U.U.U.U.U.N B S S S O.O.4.0.0.0.3.O.S S G G O.H U r m n.M.c.| n n n n n k - 5 F H H H G S S S N   U.U.U.U.U.U.U.U.U.U.",
"U.U.U.U.U.U.U.U.U.U.  N S S S G 0.0.0.0.0.3.G S S S G G S A 0 c l.z.| n n n n n k g 6 O Z S S S S G S S N   U.U.U.U.U.U.U.U.U.U.",
"U.U.U.U.U.U.U.U.U.U.  N S S S G O.O.X.X.O.X.G S S S S S S S A K z b n b l k n k s 6 O Z S S S S S S S S N   U.U.U.U.U.U.U.U.U.U.",
"U.U.U.U.U.U.U.U.U.U.  N B S S S G G S S S S S S S S S S S S S A 0 g h f d d j g 6 O Z G S S S S S S V B N   U.U.U.U.U.U.U.U.U.U.",
"U.U.U.U.U.U.U.U.U.U.U.U.N B S S S S S S S G S S S S S S S S S S C K 6 - = = - 6 C C S S S S S S S S B N U.U.U.U.U.U.U.U.U.U.U.U.",
"U.U.U.U.U.U.U.U.U.U.U.U.  N B V S S S S S S S S S S S S S S S G S A O 4 4 4 : @ A S D S V S V S V B N   U.U.U.U.U.U.U.U.U.U.U.U.",
"U.U.U.U.U.U.U.U.U.U.U.U.U.U.N N N B S S S S S S S S S S S S S S S S V C C C C V S S S V B N N N N N U.U.U.U.U.U.U.U.U.U.U.U.U.U.",
"U.U.U.U.U.U.U.U.U.U.U.U.U.U.      N B B S S S B V S V V V V V V V V V V V V B S V V V B N           U.U.U.U.U.U.U.U.U.U.U.U.U.U.",
"U.U.U.U.U.U.U.U.U.U.U.U.U.U.U.U.U.U.N N N N N N N N N N N N N N N N B B N N N N N N N N U.U.U.U.U.U.U.U.U.U.U.U.U.U.U.U.U.U.U.U.",
"U.U.U.U.U.U.U.U.U.U.U.U.U.U.U.U.U.U.            . o + @ @ @ @ @ + + + + @ @ . . .       U.U.U.U.U.U.U.U.U.U.U.U.U.U.U.U.U.U.U.U.",
"U.U.U.U.U.U.U.U.U.U.U.U.U.U.U.U.U.U.U.U.U.U.U.U.: > 1 3 3 3 3 1 3 3 3 3 3 1 > : U.U.U.U.U.U.U.U.U.U.U.U.U.U.U.U.U.U.U.U.U.U.U.U.",
"U.U.U.U.U.U.U.U.U.U.U.U.U.U.U.U.U.U.U.U.U.U.U.U., % & * * * * * * * * * * & % # U.U.U.U.U.U.U.U.U.U.U.U.U.U.U.U.U.U.U.U.U.U.U.U.",
"U.U.U.U.U.U.U.U.U.U.U.U.U.U.U.U.U.U.U.U.U.U.U.U.$ % * J * * * * * * * * J * % $ U.U.U.U.U.U.U.U.U.U.U.U.U.U.U.U.U.U.U.U.U.U.U.U.",
"U.U.U.U.U.U.U.U.U.U.U.U.U.U.U.U.U.U.U.U.U.U.U.U.# % T E J J * J * * * J E T % # U.U.U.U.U.U.U.U.U.U.U.U.U.U.U.U.U.U.U.U.U.U.U.U.",
"U.U.U.U.U.U.U.U.U.U.U.U.U.U.U.U.U.U.U.U.U.U.U.U.# % T W J J J J J J W J W T % # U.U.U.U.U.U.U.U.U.U.U.U.U.U.U.U.U.U.U.U.U.U.U.U.",
"U.U.U.U.U.U.U.U.U.U.U.U.U.U.U.U.U.U.U.U.U.U.U.U.; % T W Q ! W W Q Q ! ! ! T 2 # U.U.U.U.U.U.U.U.U.U.U.U.U.U.U.U.U.U.U.U.U.U.U.U.",
"U.U.U.U.U.U.U.U.U.U.U.U.U.U.U.U.U.U.U.U.U.U.U.U.# % T ! ! ! ! Q ! ' ' ' ' W 2 # U.U.U.U.U.U.U.U.U.U.U.U.U.U.U.U.U.U.U.U.U.U.U.U.",
"U.U.U.U.U.U.U.U.U.U.U.U.U.U.U.U.U.U.U.U.U.U.U.< 2 p W ! ' ' ! ! ' ] ] ] ] ! a 2 , U.U.U.U.U.U.U.U.U.U.U.U.U.U.U.U.U.U.U.U.U.U.U.",
"U.U.U.U.U.U.U.U.U.U.U.U.U.U.U.U.U.U.U.U.U.U.; 2 T ! ~ ] ' ] ] ] ] ] ] ] ] ] ! W 2 ; U.U.U.U.U.U.U.U.U.U.U.U.U.U.U.U.U.U.U.U.U.U.",
"U.U.U.U.U.U.U.U.U.U.U.U.U.U.U.U.U.U.U.U.U.U.; i ~ ] ] ] ] ] ] ] ] ] ] ] ] ] ] ! i ; U.U.U.U.U.U.U.U.U.U.U.U.U.U.U.U.U.U.U.U.U.U.",
"U.U.U.U.U.U.U.U.U.U.U.U.U.U.U.U.U.U.U.U.U.U.U.R ~ ] ] ] ] ] ] ] ] ] ] ] ] ] ] ~ R U.U.U.U.U.U.U.U.U.U.U.U.U.U.U.U.U.U.U.U.U.U.U.",
"U.U.U.U.U.U.U.U.U.U.U.U.U.U.U.U.U.U.U.U.U.U.U.U.` ] ] ] ] ] ] ] ] ] ] ] ] ] ] ~ U.U.U.U.U.U.U.U.U.U.U.U.U.U.U.U.U.U.U.U.U.U.U.U.",
"U.U.U.U.U.U.U.U.U.U.U.U.U.U.U.U.U.U.U.U.U.U.U.U.U.U.U.U.U.` ] ] ] ] ` U.U.U.U.U.U.U.U.U.U.U.U.U.U.U.U.U.U.U.U.U.U.U.U.U.U.U.U.U.",
"U.U.U.U.U.U.U.U.U.U.U.U.U.U.U.U.U.U.U.U.U.U.U.U.U.U.U.U.U.U.` ] ] ` U.U.U.U.U.U.U.U.U.U.U.U.U.U.U.U.U.U.U.U.U.U.U.U.U.U.U.U.U.U.",
"U.U.U.U.U.U.U.U.U.U.U.U.U.U.U.U.U.U.U.U.U.U.U.U.U.U.U.U.U.U.U.U.U.U.U.U.U.U.U.U.U.U.U.U.U.U.U.U.U.U.U.U.U.U.U.U.U.U.U.U.U.U.U.U.",
"U.U.U.U.U.U.U.U.U.U.U.U.U.U.U.U.U.U.U.U.U.U.U.U.U.U.U.U.U.U.U.U.U.U.U.U.U.U.U.U.U.U.U.U.U.U.U.U.U.U.U.U.U.U.U.U.U.U.U.U.U.U.U.U."
};
