/* XPM */
static char * cat3_xpm[] = {
"64 64 14 1",
" 	c #C0D470",
".	c #A4C263",
"+	c #303430",
"@	c #7C8383",
"#	c #DBE6EB",
"$	c #E8EEAA",
"%	c #A3ABAF",
"&	c #504C4C",
"*	c #932400",
"=	c #D33C38",
"-	c #272727",
";	c #344C78",
">	c #64A7DB",
",	c #000000",
"                                                                ",
"                                                                ",
"                                                                ",
"            .            . .                .            . .    ",
"           .              .                .              .     ",
"           .                               .                    ",
"    .                               .                           ",
"     .                               .                          ",
"     .    .                          .    .                     ",
"         .                               .                      ",
"         .         . .                   .         . .          ",
"                    .                               .           ",
"                                                                ",
"                                                                ",
"      +++                                                       ",
"     +@@@++                                                     ",
"     +@@@++                                                     ",
"     +###++                                                     ",
"     +###++                                                     ",
"     +###++                $ $           ++++              $ $  ",
"     +###++                 $            ++++               $   ",
"     +@@@%%++                          ++####++   ++&&          ",
"     +@@@%%++                         $++####++   ++&&          ",
"   $  +++##++                      $ ++##%%**%%+++&&@@++        ",
"    $ +++@@%%++                     $++##**==**&&&&&@@++        ",
"    $ +++@@%%++                     $++##**==**&&&&&@@++        ",
"    $ +++@@%%++     $ $             $++##**==**&&&&&@@++        ",
"         ++##@@++    $             ++@@%%==#######%%&&++        ",
"         ++##@@++                  ++@@%%==#######%%&&++        ",
"           ++%%@@++++++++++++++++++&&%%#########--##%%++        ",
"           ++%%@@++++++++++++++++++&&%%#########--##%%++        ",
"             ++@@@@@%%--#####--%%%%@@###########--####&&        ",
"             ++@@@@@%%--#####--%%%%@@###########--####&&        ",
"             ++@@%####--#####--####%%########;;;######%%&&      ",
"             ++&&%####--#####--####%%########>>;######%%&&      ",
"            .++&&%####--#####--####%%########>>;######%%&& .    ",
"           .   ++%####--#####--######&&&&#########@@++%%++.     ",
"           .   ++%####--#####--######&&&&#########@@++%%++      ",
"    .          ++@%%#################@@%%###########%%++        ",
"     .         ++@%%#################@@%%###########%%++        ",
"     .    .  ++&&@%%#######%%########@@&&&&%%###%%&&++          ",
"         .   ++&&@%%#######%%########@@&&&&%%###%%&&++          ",
"         .   ++@@+@@#######%%######%%%%@@&&&&++,,, . .          ",
"             ++@@+@@#######%%######%%%%@@&&&&++,,,  .           ",
"           ++@@&&+@@%%@@@@+++@@@@%%%%@@@@@@++,,                 ",
"           ++@@++,++@@@@&&,,,,,@@@@@@,,,,++&&,,                 ",
"           ++@@++,++@@@@&&,,,,,@@@@@@,,,,++&&,,                 ",
"             ,,,, ,,@@@@&&,  ,,@@@@++,,  ,,&&&&,                ",
"             ,,,, ,,@@@@&&,  ,,@@@@++,,  ,,&&&&,                ",
"                  ,,++%%%%,  ,,######,,    ,,,,,                ",
"                  ,,++%%%%,  ,,######,,    ,,,,,                ",
"                  ,,++%%%%,$ ,,######,,    ,,,,,           $ $  ",
"                    ,,,,,,, $  ,,,,,,                       $   ",
"       $            ,,,,,,,    ,,,,,,  $                        ",
"      $                               $                         ",
"   $  $                            $  $                         ",
"    $ $                             $ $                         ",
"    $     $                         $     $                     ",
"    $      $        $ $             $      $        $ $         ",
"           $         $                     $         $          ",
"           $                               $                    ",
"                                                                ",
"                                                                ",
"                                                                "};
