/* XPM */
static char * cat4_xpm[] = {
"64 64 10 1",
" 	c #C0D470",
".	c #A4C263",
"+	c #303430",
"@	c #DBE6EB",
"#	c #A3ABAF",
"$	c #504C4C",
"%	c #7C8383",
"&	c #E8EEAA",
"*	c #000000",
"=	c #272727",
"                                                                ",
"                                                                ",
"                                                                ",
"            .            . .                .            . .    ",
"           .              .                .              .     ",
"           .                               .                    ",
"    .                               .                           ",
"     .                               .                          ",
"     .    .          ++              . ++ .                     ",
"         .           ++                ++.                      ",
"         .         ++@@++            ++@@++        . .          ",
"                   ++@@++            ++@@++         .           ",
"                   ++####++++++++++++####++                     ",
"                   ++####++++++++++++####++                     ",
"                   ++$$%%############%%$$++                     ",
"                   ++$$%%############%%$$++                     ",
"                   ++%%##@@@@@@@@@@@@##%%++                     ",
"                   ++%%##@@@@@@@@@@@@##%%++                     ",
"                   ++%%@@@@@@@@%%##@@@@%%++                     ",
"                   ++%%@@@@@@@@%%##@@@@%%++                & &  ",
"                 ++++%%##@@@@%%@@$$@@##%%++++               &   ",
"       &         ++++%%##@@@@%%@@$$@@##%%++++                   ",
"      &            **++%%####%%@@$$##%%++**                     ",
"   &  &            **++%%####%%@@$$##%%++**                     ",
"    & &          ++++%%%%##@@%%@@$$@@%%%%++++                   ",
"    &     &      ++++%%%%##@@%%@@$$@@%%%%++++                   ",
"    &      &       **####@@@@%%@@$$@@@@##**&        & &         ",
"           &       **####@@@@%%@@$$@@@@##**&         &          ",
"           &     ++##@@@@====%%@@$$==@@##%%++                   ",
"                 ++##@@@@====%%@@$$==@@##%%++                   ",
"                 ++##@@==@@##%%@@$$@@==@@##++                   ",
"                 ++##@@==@@##%%@@$$@@==@@##++                   ",
"                 ++%%##@@==%%##@@$$==@@####++                   ",
"                 ++%%##@@==%%##@@$$==@@####++                   ",
"                 ++%%##==@@%%@@##$$@@==##%%++                   ",
"            .    ++%%##==@@%%@@##$$@@==##%%++            . .    ",
"           .     **%%%%@@@@%%@@$$%%@@@@##%%**             .     ",
"           .     **%%%%@@@@%%@@$$%%@@@@##%%**                   ",
"    .            **$$%%##@@$$##$$##@@####$$**                   ",
"     .           **$$%%##@@$$##$$##@@####$$**                   ",
"     .    .      **$$%%%%##$$##$$########$$**                   ",
"         .       **$$%%%%##$$##$$########$$**                   ",
"         .         ++$$%%%%$$**%%%%####%%++        . .          ",
"                   ++$$%%%%$$**%%%%####%%++         .           ",
"                     **$$%%++**%%####%%**                       ",
"                     **$$%%++**%%####%%**                       ",
"                       **$$++**$$@@@@$$**                       ",
"                       **$$++**$$@@@@$$**                       ",
"                       **++++  **####**                         ",
"                       **++++  **####**                         ",
"                         ****  **$$$$**                         ",
"                         ****& **$$$$**                    & &  ",
"                            &  ++****                       &   ",
"       &                       ++****  &                        ",
"      &                               &                         ",
"   &  &                            &  &                         ",
"    & &                             & &                         ",
"    &     &                         &     &                     ",
"    &      &        & &             &      &        & &         ",
"           &         &                     &         &          ",
"           &                               &                    ",
"                                                                ",
"                                                                ",
"                                                                "};
