/* XPM */
static char * wall_xpm[] = {
"64 64 161 2",
"  	c #C0D470",
". 	c #5F7A79",
"+ 	c #A4C263",
"@ 	c #749280",
"# 	c #799681",
"$ 	c #7A9B82",
"% 	c #6B8E7C",
"& 	c #92B58C",
"* 	c #99BC8F",
"= 	c #A3BC8F",
"- 	c #9DC191",
"; 	c #A5BC90",
"> 	c #8BAD89",
", 	c #83A486",
"' 	c #97BB8E",
") 	c #A2C693",
"! 	c #ABD097",
"~ 	c #AED499",
"{ 	c #B3D799",
"] 	c #B6D999",
"^ 	c #A5CA94",
"/ 	c #8EB28A",
"( 	c #A9CE96",
"_ 	c #BCDD9A",
": 	c #C2E09A",
"< 	c #C1DF9A",
"[ 	c #8C9F83",
"} 	c #89AE87",
"| 	c #647877",
"1 	c #7AA181",
"2 	c #B3D397",
"3 	c #BFD094",
"4 	c #BBCB93",
"5 	c #ADC492",
"6 	c #ADBE90",
"7 	c #B4A988",
"8 	c #B49380",
"9 	c #BB9286",
"0 	c #B8AC88",
"a 	c #AA8B7E",
"b 	c #A59582",
"c 	c #9BAD89",
"d 	c #BEB98E",
"e 	c #C58B8C",
"f 	c #BE7C84",
"g 	c #BBB78C",
"h 	c #B88D86",
"i 	c #B16877",
"j 	c #AB6276",
"k 	c #A47B79",
"l 	c #9A9982",
"m 	c #718D7E",
"n 	c #BF988A",
"o 	c #D19E98",
"p 	c #D89D9B",
"q 	c #D29496",
"r 	c #CB8B8D",
"s 	c #B38A7F",
"t 	c #B6797D",
"u 	c #BC737D",
"v 	c #B96F7B",
"w 	c #AC6C79",
"x 	c #987379",
"y 	c #959582",
"z 	c #A1B68D",
"A 	c #85AA86",
"B 	c #E0A8A3",
"C 	c #BB7680",
"D 	c #B56D7A",
"E 	c #995674",
"F 	c #B77580",
"G 	c #C27C84",
"H 	c #937E7B",
"I 	c #A8A185",
"J 	c #B38A82",
"K 	c #C1858A",
"L 	c #C9878C",
"M 	c #A76979",
"N 	c #E8EEAA",
"O 	c #AB9E85",
"P 	c #ADA488",
"Q 	c #AF8E80",
"R 	c #AD8280",
"S 	c #A39B83",
"T 	c #AEAE8B",
"U 	c #B6727D",
"V 	c #A46177",
"W 	c #9AB58C",
"X 	c #B38583",
"Y 	c #B2B08D",
"Z 	c #AE6779",
"` 	c #9D7D7C",
" .	c #95AD89",
"..	c #AB827E",
"+.	c #965372",
"@.	c #A2A989",
"#.	c #9BA987",
"$.	c #A7827C",
"%.	c #95827C",
"&.	c #8F797A",
"*.	c #92A586",
"=.	c #8B7177",
"-.	c #9C8A7D",
";.	c #926775",
">.	c #71927D",
",.	c #8E7679",
"'.	c #63827A",
").	c #66887A",
"!.	c #779E80",
"~.	c #6E967C",
"{.	c #72997D",
"].	c #7B9C7F",
"^.	c #9E927F",
"/.	c #83927C",
"(.	c #8E837A",
"_.	c #7E907C",
":.	c #AE7F7D",
"<.	c #9F6E75",
"[.	c #B2877F",
"}.	c #867F77",
"|.	c #B87B7D",
"1.	c #8BA384",
"2.	c #9D7476",
"3.	c #866975",
"4.	c #7A8D7A",
"5.	c #8E7A76",
"6.	c #7E7576",
"7.	c #A7777C",
"8.	c #768779",
"9.	c #846573",
"0.	c #836A67",
"a.	c #787A72",
"b.	c #6B7674",
"c.	c #717672",
"d.	c #767872",
"e.	c #8B6D65",
"f.	c #967563",
"g.	c #9B7963",
"h.	c #926765",
"i.	c #9B6D5E",
"j.	c #A6775C",
"k.	c #AB7B5A",
"l.	c #8E615F",
"m.	c #91625D",
"n.	c #B1825E",
"o.	c #AD8061",
"p.	c #B38561",
"q.	c #B68963",
"r.	c #8C6062",
"s.	c #B98D64",
"t.	c #BD9167",
"u.	c #9D7162",
"v.	c #C1976A",
"w.	c #926865",
"x.	c #A77B62",
"y.	c #C3996C",
"z.	c #AA7F64",
"A.	c #BD936B",
"B.	c #A27763",
"C.	c #A8806A",
"D.	c #BA9270",
"                                                                                                                                ",
"                                                                                                                                ",
"                                                . . . . . . . . . . . . . . . . . .                                             ",
"                        +                       @ @ # $ $ # # $ $ # # $ # @ @ @ @ %     +                         +   +         ",
"                      +                 . . . @ $ & * = - - - - - - = ; - * & > > , @ .                             +           ",
"                      +                 @ @ # , ' ) ! ~ { { { ] { ~ ~ { { ~ ^ ) - ' $ @                                         ",
"        +                       . . . @ $ / * - ( ! ~ { _ _ _ _ _ _ { { _ _ _ { ! ) & , @ . . .                                 ",
"          +                     @ @ @ , ' ) ! ~ ! ~ ~ ~ _ : : : : _ { { _ : < _ { ( ) & $ @ @ %                                 ",
"          +         +       . % [ / ' - ( ! ~ ~ ~ ~ { { _ : : : : _ { { _ : : _ { ~ ! ) & / } , @ |                             ",
"                  +         @ [ ' ) ! { { { { { ~ ~ { ] _ : : < _ _ { { ] _ < ] { { ~ ! ) - - & $ %                             ",
"                  +     . @ 1 & ) { ] _ _ _ _ _ { { _ _ : : < < ] { ~ ~ { { { { ~ ~ ~ ~ ! ( ( ) & , @ .   +                     ",
"                        @ $ > - ! { < : : : : _ ] ] _ : : : _ ] { ~ ~ ~ { { ] ] { { ~ ~ ~ ~ ~ ( - / $ @ +                       ",
"                    . @ $ > ' - ( { ] : : : : : _ _ : : < < ] { ~ ~ ~ { _ _ _ _ _ ] { 2 ! ~ 2 ( - ' > , % .                     ",
"                    . @ / - - ) ! { ] < _ _ < : : : _ _ _ ] { { ~ ~ ~ { _ _ 3 4 4 4 { ! 5 5 6 = * ' ' > @ .                     ",
"                    . @ * ( ! ! ~ ~ { { ] ] _ : : _ ] ] { { ~ ~ ~ ~ ~ ] _ < 7 8 9 0 4 4 7 a a b c ' ' > @ .                     ",
"                    @ , ) ~ ~ ~ ~ ~ ~ ~ { { _ _ _ ] { { ~ ~ ~ ~ ~ ~ ~ { 4 d e f f 9 d g h i j k l c * ' $ m                     ",
"                . % [ & ^ ~ ~ ~ ~ ~ ~ ~ ~ ~ { { { { { ~ ~ ~ ~ ~ ~ ~ ! 5 7 n o p q r 9 s t u v w x y z ; & , @ .                 ",
"                . @ A - ! ~ ~ ~ ~ ~ ~ ~ ~ ~ ~ ~ ~ ~ ~ ~ ~ ~ ~ ! ~ ~ { 5 a f p B p r C D u u C D E y ; ( - > @ .                 ",
"                . @ > - ( ~ ~ ~ ~ ~ ~ { ~ ~ ~ ~ ~ ~ ~ ~ ~ ~ ~ ~ ~ ~ ~ ; a F q p r G u u u u u i E H ; ( - > @ .                 ",
"                . @ > * ^ ( 5 6 6 5 ! ! 5 6 6 5 ( ( ! ~ ~ ~ ~ ~ ~ ~ ~ 5 I J K L G u u u u u D M x y * ( * , @ .       N   N     ",
"                . % > ' - z O J 8 P 5 5 P Q R S z ) ( ~ ~ ~ ~ ~ ~ ~ ~ ! 5 T J D u u U D u D V x y c * - * > @ .         N       ",
"              N . @ > W c P h X f 9 Y T X i j k l W ^ { ~ ~ ~ ~ ~ ~ ~ ~ ! 5 S k w Z j j Z w ` y  .' ' ' / , @ .                 ",
"            N   . @ > c b h o p q e 9 ..t u D w x l ) ~ ~ ~ ~ ~ ~ ~ ~ ~ ~ ( z l x E +.+.E ` @.= * * ' > $ @                     ",
"      N     N   . @ > #.$.f p B p r u D u u u D E H W ( ( ( ( ! ! ~ ~ ~ ( ^ ) W y %.H H &.y = ^ - ' ' > @ .                     ",
"        N   N   . @ > *.k F q p r G C v u u u D E =. .* - - - ) ! ~ ! ! ) - ( ^ ) ; ; W  . .* - * * ' > @ .                     ",
"        N       . @ , *.-.R K L G u u u C F v w x y  .' ' ' * - ^ ( ( ^ - - ^ ( ( ! ( ^ - * ' ' ' * ' / # m                     ",
"        N           @ # *.S ..v v u v D u D V ;.y  .' ' ' ' ' * - - - - * ' - - - - - - * * ' ' ' ' ' & / , @ .                 ",
"                    . @ > #.l k w Z j j Z M x y  .' ' ' ' ' ' ' ' ' ' ' ' ' ' ' ' ' ' ' ' ' ' ' ' ' ' ' ' > @ .                 ",
"                    . @ > '  .l x E +.+.E x y  .' ' ' ' ' ' ' ' ' ' ' ' ' ' ' ' & * * ' ' ' ' * ' ' ' * ' > @ .                 ",
"                    | >.> ' '  .y ,.,.,.=.y  .' ' ' ' ' ' ' ' ' ' ' ' ' ' ' ' ' * ' * ' ' ' ' ' ' ' ' ' / , % .                 ",
"                . '.).!./ ' ' '  .*.*.*.*. .' ' ' ' ' ' ' ' ' ' ' ' ' ' ' ' ' ' ' ' ' ' ' ' ' ' ' ' ' / , !.)..                 ",
"                . '.~.!.A / / & & ' / / / / ' ' ' ' / > & / / & & * ' * ' ' ' ' * ' / / / / / / / / / } !.% '..                 ",
"                . '.~.{.!.!.1 A / / 1 1 1 1 / & - / A 1 1 1 ].A & ' ' ' ' ' ' ' - / ].].].1 1 1 1 1 1 {.~.~.'..                 ",
"                . '.% ~.~.~.~.1 / - 1 ~.{.1 / - ' / 1 ~.~.~.~.].*.c @.W W W W #.& ^.].{.~.{.~.~.~.~.{.{.~.% '..                 ",
"                . '.% ~.~.~.~.1 / / 1 ~.{.1 & - ' / 1 {.~.~.~./.-.$.$.b c W ^...k (._.>.~.~.~.~.~.~.~.~.~.% '..                 ",
"                . '.% {.~.~.~.!.} 1 !.~.~.!.1 / / } 1 1 1 ]._.-.X K f X O S :.i j <.(.m ].1 1 ].{.~.~.~.~.% '..   +   +         ",
"                . '.% ~.~.~.~.{.1 !.!.~.{.{.!.1 1 1 / / / *.-.X o p q e X [.U v U w ;.}.A / / } !.~.~.~.'.'.        +           ",
"                . '.% % ~.~.~.~.1 1 1 1 1 1 {.~.~.{.} / / #.$.|.p B p r u D u u u D E =.1./ / } !.~.~.~.'.'.                    ",
"        +           '.).~.~.~.1 1 } / / / A 1 ~.~.{.{.1 ]./.2.t q p r G u u u u u D E 3._.].].].{.~.~.~.'..                     ",
"          +         . '.~.~.~.{./ / / / / A {.~.~.~.{.{.~.4.5.k K L G u u u u u D M ;.6.m ~.~.~.~.{.~.~.'..                     ",
"          +         . '.~.~.~.{.1 1 !.!.1 !.{.~.~.~.~.~.~.~.4.(.7.U u U v D u D V ;.6.m ~.~.~.~.~.~.~.~.'..                     ",
"                  + . '.).~.~.~.{.{.~.~.~.~.~.~.~.~.~.~.~.~.~.4.5.M w Z j j i M ;.6.m {.~.~.~.~.~.~.% ).'..                     ",
"                  +     '.).~.~.~.~.~.~.~.{.~.~.~.~.~.~.~.~.~.~.8.(.;.E +.+.E ;.8.8.~.~.~.~.~.~.~.~.).'.  +                     ",
"                        . '.).% ~.~.~.~.~.~.~.~.~.~.~.~.~.~.~.{.~.4.6.9.9.9.0.a.4.~.>.~.% ~.% ~.% ).'.. +                       ",
"                            '.'.'.).~.~.~.~.~.~.~.~.~.~.~.~.~.~.~.~.% 8.8.8.8.% ~.~.~.% ).'.'.'.'.'.                            ",
"                            . . . '.).).~.~.~.).% ~.% % % % % % % % % % % % ).~.% % % ).'.. . . . .                             ",
"                                    '.'.'.'.'.'.'.'.'.'.'.'.'.'.'.'.).).'.'.'.'.'.'.'.'.                                        ",
"                                    . . . . . . b.c.d.a.a.a.a.a.d.d.d.d.a.a.b.b.b.. . .                                         ",
"                                                0.e.f.g.g.g.g.f.g.g.g.g.g.f.e.0.                                                ",
"                                                h.i.j.k.k.k.k.k.k.k.k.k.k.j.i.l.                                                ",
"                                                m.i.k.n.k.k.k.k.k.k.k.k.n.k.i.m.                                                ",
"                                                l.i.o.p.n.n.k.n.k.k.k.n.p.o.i.l.                                      N   N     ",
"                                                l.i.o.q.n.n.n.n.n.n.q.n.q.o.i.l.                                        N       ",
"              N                                 r.i.o.q.s.t.q.q.s.s.t.t.t.o.u.l.                                                ",
"            N                                   l.i.o.t.t.t.t.s.t.v.v.v.v.q.u.l.                                                ",
"      N     N                                 w.u.x.q.t.v.v.t.t.v.y.y.y.y.t.z.u.h.                                              ",
"        N   N                               r.u.o.t.A.y.v.y.y.y.y.y.y.y.y.y.t.q.u.r.                                            ",
"        N           N                       r.B.A.y.y.y.y.y.y.y.y.y.y.y.y.y.y.t.B.r.N                                           ",
"        N             N                 N   N C.A.y.y.y.y.y.y.y.y.y.y.y.y.y.y.A.C.    N                 N   N                   ",
"                      N                   N     D.y.y.y.y.y.y.y.y.y.y.y.y.y.y.A.      N                   N                     ",
"                      N                                   D.y.y.y.y.D.                N                                         ",
"                                                            D.y.y.D.                                                            ",
"                                                                                                                                ",
"                                                                                                                                "};
