/* XPM */
static char * peanut_xpm[] = {
"64 64 261 2",
"  	c #C0D470",
". 	c #A4C263",
"+ 	c #E8EEAA",
"@ 	c #3D2227",
"# 	c #47212C",
"$ 	c #4A202C",
"% 	c #481E2A",
"& 	c #471D29",
"* 	c #43282A",
"= 	c #C1D277",
"- 	c #C3D17A",
"; 	c #5B2525",
"> 	c #894B3C",
", 	c #783928",
"' 	c #7D3F30",
") 	c #824439",
"! 	c #682924",
"~ 	c #682B2A",
"{ 	c #81464A",
"] 	c #4F212B",
"^ 	c #4D1516",
"/ 	c #823F36",
"( 	c #B67356",
"_ 	c #C98767",
": 	c #BD7A5D",
"< 	c #B37159",
"[ 	c #854231",
"} 	c #914F41",
"| 	c #C4837F",
"1 	c #56222F",
"2 	c #46252E",
"3 	c #824E50",
"4 	c #82433C",
"5 	c #BC7561",
"6 	c #F0B08C",
"7 	c #CE9069",
"8 	c #B47450",
"9 	c #F4B393",
"0 	c #B6745A",
"a 	c #BE7C66",
"b 	c #824238",
"c 	c #582431",
"d 	c #411B17",
"e 	c #BB7F75",
"f 	c #B6725D",
"g 	c #FFB695",
"h 	c #B47A4C",
"i 	c #E7AF80",
"j 	c #F7BE91",
"k 	c #BE835B",
"l 	c #F2B28E",
"m 	c #EDAC8C",
"n 	c #C78672",
"o 	c #521E2B",
"p 	c #C2D379",
"q 	c #C3D379",
"r 	c #6B4236",
"s 	c #B67363",
"t 	c #BE795C",
"u 	c #E4A177",
"v 	c #C58D5E",
"w 	c #E2AE7E",
"x 	c #EBB587",
"y 	c #BC8356",
"z 	c #E3A37D",
"A 	c #E3A27C",
"B 	c #B7775E",
"C 	c #825A62",
"D 	c #4B191C",
"E 	c #7D3E37",
"F 	c #B46D57",
"G 	c #B77253",
"H 	c #BD7F56",
"I 	c #E2AF80",
"J 	c #F1BE8F",
"K 	c #F3BE92",
"L 	c #ECB68A",
"M 	c #BA7A54",
"N 	c #BA7953",
"O 	c #CC8A72",
"P 	c #2A1013",
"Q 	c #77464A",
"R 	c #824847",
"S 	c #B47168",
"T 	c #BF7862",
"U 	c #B47250",
"V 	c #F4B78B",
"W 	c #B37E52",
"X 	c #DEAB7E",
"Y 	c #FCC899",
"Z 	c #B07A4C",
"` 	c #F6B88F",
" .	c #F9B794",
"..	c #C3806D",
"+.	c #5F4744",
"@.	c #401821",
"#.	c #46191E",
"$.	c #794645",
"%.	c #B7726D",
"&.	c #BF796F",
"*.	c #8D4838",
"=.	c #BA745A",
"-.	c #B66F4F",
";.	c #BB7551",
">.	c #F5B390",
",.	c #BC7E55",
"'.	c #B07344",
").	c #F5B987",
"!.	c #C78763",
"~.	c #B9775D",
"{.	c #8E4F48",
"].	c #562C38",
"^.	c #C2D378",
"/.	c #724F4B",
"(.	c #673538",
"_.	c #7C4540",
":.	c #81473C",
"<.	c #AB6754",
"[.	c #C07965",
"}.	c #965037",
"|.	c #C57B62",
"1.	c #C1775A",
"2.	c #C37859",
"3.	c #DA9878",
"4.	c #C98463",
"5.	c #CD8463",
"6.	c #EFA685",
"7.	c #B4786D",
"8.	c #724240",
"9.	c #887667",
"0.	c #30070B",
"a.	c #824542",
"b.	c #813F33",
"c.	c #BE7B5E",
"d.	c #BD7952",
"e.	c #B6704C",
"f.	c #BE7554",
"g.	c #B66C51",
"h.	c #BF735C",
"i.	c #CE806C",
"j.	c #8A4631",
"k.	c #B76E5B",
"l.	c #BD6E5F",
"m.	c #C97B71",
"n.	c #804342",
"o.	c #7F5056",
"p.	c #3C3B1D",
"q.	c #48232A",
"r.	c #8B5759",
"s.	c #B77165",
"t.	c #C07860",
"u.	c #F0AF89",
"v.	c #B17247",
"w.	c #E7A779",
"x.	c #F4B187",
"y.	c #BB7752",
"z.	c #BF775E",
"A.	c #CA7F6A",
"B.	c #833528",
"C.	c #B67265",
"D.	c #813D34",
"E.	c #803B34",
"F.	c #541213",
"G.	c #4F1E24",
"H.	c #3C1822",
"I.	c #4A191C",
"J.	c #BE7F78",
"K.	c #F4A890",
"L.	c #F4AB88",
"M.	c #B87B4C",
"N.	c #E1AC78",
"O.	c #D19769",
"P.	c #B3784E",
"Q.	c #EEAF8C",
"R.	c #955339",
"S.	c #7E3A27",
"T.	c #C17B6F",
"U.	c #864541",
"V.	c #673431",
"W.	c #553D2B",
"X.	c #5A2726",
"Y.	c #BB796D",
"Z.	c #ECA182",
"`.	c #EBA67D",
" +	c #C28D59",
".+	c #DFB07C",
"++	c #C18B5D",
"@+	c #BB845B",
"#+	c #E7AC8A",
"$+	c #905239",
"%+	c #975644",
"&+	c #B47266",
"*+	c #753837",
"=+	c #7C5E50",
"-+	c #5C5738",
";+	c #522021",
">+	c #C68277",
",+	c #BE7757",
"'+	c #B37449",
")+	c #FCBB93",
"!+	c #E3A580",
"~+	c #EAB991",
"{+	c #ECB388",
"]+	c #C18056",
"^+	c #B87352",
"/+	c #C4826C",
"(+	c #894C47",
"_+	c #1C0404",
":+	c #522625",
"<+	c #B57569",
"[+	c #F0B08D",
"}+	c #F3B88C",
"|+	c #EFB488",
"1+	c #BF895D",
"2+	c #B4754A",
"3+	c #BB785D",
"4+	c #BD7F70",
"5+	c #551D1E",
"6+	c #4F2026",
"7+	c #8C4B45",
"8+	c #B8755B",
"9+	c #B77954",
"0+	c #FFC396",
"a+	c #B47647",
"b+	c #E3A576",
"c+	c #F5B288",
"d+	c #CB8665",
"e+	c #834536",
"f+	c #83504D",
"g+	c #502735",
"h+	c #58232D",
"i+	c #974F53",
"j+	c #B86C5E",
"k+	c #C07A61",
"l+	c #F7B390",
"m+	c #C17D58",
"n+	c #D79771",
"o+	c #F2B191",
"p+	c #BB7961",
"q+	c #875049",
"r+	c #6D4445",
"s+	c #5F4F48",
"t+	c #3D0E18",
"u+	c #B4707D",
"v+	c #9C5658",
"w+	c #8F4E48",
"x+	c #BB7C6D",
"y+	c #BA7B6A",
"z+	c #B98174",
"A+	c #B47971",
"B+	c #8B5451",
"C+	c #4C2226",
"D+	c #39311B",
"E+	c #43111C",
"F+	c #60292F",
"G+	c #4E1D20",
"H+	c #53241E",
"I+	c #63322D",
"J+	c #562529",
"K+	c #58252C",
"L+	c #5B2733",
"                                                                                                                                ",
"                                                                                                                                ",
"                                                                                                                                ",
"                        .                         .   .                                 .                         .   .         ",
"                      .                             .                                 .                             .           ",
"                      .                                                               .                                         ",
"        .                                                               .                                                       ",
"          .                                                               .                                                     ",
"          .         .                                                     .         .                                           ",
"                  .                                                               .                                             ",
"                  .                   .   .                                       .                   .   .                     ",
"                                        .                                                               .                       ",
"                                                                                                                                ",
"                                                                                                                                ",
"                                                                                                                                ",
"                                                                                                                                ",
"                                                                                                                                ",
"                                                                                                                                ",
"                                                                                                                                ",
"                                                      +   +                                                           +   +     ",
"                                                        +                                                               +       ",
"              +                                                               +                                                 ",
"            +                                                     @ # $ $ $ % & *                                               ",
"      +     +                                                 = - ; > , ' ) ! ~ {                                               ",
"        +   +                                                 ] ^ / ( _ : < [ } | 1                                             ",
"        +           +                                       2 3 4 5 6 7 8 9 0 a b c +                                           ",
"        +             +                 +   +               d e f g h i j k l m n o   +                 +   +                   ",
"                      +                   +             p q r s t u v w x y z A B o   +                   +                     ",
"                      +                                 C D E F G H I J K L M N O o   +                                         ",
"                                                      P Q R S T U V W X Y Z `  ...o                                             ",
"                                                +.@.#.$.%.&.*.=.-.;.>.,.'.).!.~.{.].                                            ",
"                                              ^./.(._.:.<.[.}.|.1.2.3.4.5.6.a 7.8.9.                                            ",
"                                              0.a.b.< c.d.e.f.g.h.i.j.k.l.m.n.o.p.                                              ",
"                                            q.r.s.t.u.v.w.x.y.z.A.B.C.D.E.F.G.H.                                                ",
"                                            I.J.K.L.M.N.O.P.Q.R.S.T.U.V.W.                                                      ",
"                        .                   X.Y.Z.`. +.+++@+#+$+%+&+*+=+-+              .                         .   .         ",
"                      .                     ;+>+,+'+)+!+~+{+]+^+/+(+_+                .                             .           ",
"                      .                     :+<+[+}+h |+1+2+x.3+4+5+                  .                                         ",
"        .                                   6+7+8+9+0+a+b+c+d+e+f+g+    .                                                       ",
"          .                                 h+i+j+k+l+m+n+o+p+q+r+s+      .                                                     ",
"          .         .                       t+u+v+w+x+y+z+A+B+C+D+        .         .                                           ",
"                  .                           E+F+G+H+I+J+K+L+                    .                                             ",
"                  .                   .   .                                       .                   .   .                     ",
"                                        .                                                               .                       ",
"                                                                                                                                ",
"                                                                                                                                ",
"                                                                                                                                ",
"                                                                                                                                ",
"                                                                                                                                ",
"                                                                                                                                ",
"                                                                                                                                ",
"                                                      +   +                                                           +   +     ",
"                                                        +                                                               +       ",
"              +                                                               +                                                 ",
"            +                                                               +                                                   ",
"      +     +                                                         +     +                                                   ",
"        +   +                                                           +   +                                                   ",
"        +           +                                                   +           +                                           ",
"        +             +                 +   +                           +             +                 +   +                   ",
"                      +                   +                                           +                   +                     ",
"                      +                                                               +                                         ",
"                                                                                                                                ",
"                                                                                                                                ",
"                                                                                                                                "};
