/* XPM */
static char * portal_xpm[] = {
"64 64 13 1",
" 	c #C0D470",
".	c #A4C263",
"+	c #5F5F5F",
"@	c #525252",
"#	c #565656",
"$	c #793737",
"%	c #864242",
"&	c #934848",
"*	c #E8EEAA",
"=	c #682F2F",
"-	c #5B2929",
";	c #4E2323",
">	c #3D1D1D",
"                                                                ",
"                                                                ",
"                                                                ",
"            .            . .                .            . .    ",
"           .            ++++++++++++++++   .              .     ",
"           .            ++++++++++++++++   .                    ",
"    .               ++++++@@@@@@@@@@@@++++++                    ",
"     .              ++++++@@@@@@@@@@@@++++++                    ",
"     .    .     ++++++@@@@############@@@@++++++                ",
"         .      ++++++@@@@############@@@@++++++                ",
"         .    ++++@@########++++++++########@@++++ . .          ",
"              ++++@@########++++++++########@@++++  .           ",
"            ++++@@####++++++$$%%%%$$++++++####@@++++            ",
"            ++++@@####++++++$$%%%%$$++++++####@@++++            ",
"          ++++@@####++$$%%%%&&&&&&&&%%%%$$++####@@++++          ",
"          ++++@@####++$$%%%%&&&&&&&&%%%%$$++####@@++++          ",
"        ++++@@####++$$%%&&&&%%%%&&%%%%&&%%$$++####@@++++        ",
"        ++++@@####++$$%%&&&&%%%%&&%%%%&&%%$$++####@@++++        ",
"        ++@@####++$$%%&&%%%%$$$$&&$$&&%%&&%%$$++####@@++        ",
"        ++@@####++$$%%&&%%%%$$$$&&$$&&%%&&%%$$++####@@++   * *  ",
"      ++++####++$$%%&&%%$$$$$$==&&==$$&&%%&&%%$$++####++++  *   ",
"      ++++####++$$%%&&%%$$$$$$==&&==$$&&%%&&%%$$++####++++      ",
"      ++@@##++$$%%&&%%&&$$====--&&--==&&$$%%&&%%$$++##@@++      ",
"   *  ++@@##++$$%%&&%%&&$$====--&&--==&&$$%%&&%%$$++##@@++      ",
"    ++++@@##++%%&&%%$$$$&&------;;&&&&==$$$$%%&&%%++##@@++++    ",
"    ++++@@##++%%&&%%$$$$&&------;;&&&&==$$$$%%&&%%++##@@++++    ",
"    ++@@####++%%%%$$$$==--&&;;;;;;;;----==$$%%&&%%++####@@++    ",
"    ++@@####++%%%%$$$$==--&&;;;;;;;;----==$$%%&&%%++####@@++    ",
"    ++@@##++$$&&%%$$==&&--&&;;;;>>;;;;--==$$$$%%&&$$++##@@++    ",
"    ++@@##++$$&&%%$$==&&--&&;;;;>>;;;;--==$$$$%%&&$$++##@@++    ",
"    ++@@##++%%&&%%$$&&--;;&&>>>>>>;;;;&&&&==$$%%&&%%++##@@++    ",
"    ++@@##++%%&&%%$$&&--;;&&>>>>>>;;;;&&&&==$$%%&&%%++##@@++    ",
"    ++@@##++%%&&%%$$==&&&&;;;;>>>>>>&&;;--&&$$%%&&%%++##@@++    ",
"    ++@@##++%%&&%%$$==&&&&;;;;>>>>>>&&;;--&&$$%%&&%%++##@@++    ",
"    ++@@##++$$&&%%$$$$==--;;;;>>;;;;&&--&&==$$%%&&$$++##@@++    ",
"    ++@@##++$$&&%%$$$$==--;;;;>>;;;;&&--&&==$$%%&&$$++##@@++    ",
"    ++@@####++%%&&%%$$==----;;;;;;;;&&--==$$$$%%%%++####@@++    ",
"    ++@@####++%%&&%%$$==----;;;;;;;;&&--==$$$$%%%%++####@@++    ",
"    ++++@@##++%%&&%%$$$$==&&&&;;------&&$$$$%%&&%%++##@@++++    ",
"    ++++@@##++%%&&%%$$$$==&&&&;;------&&$$$$%%&&%%++##@@++++    ",
"     .++@@##++$$%%&&%%$$&&==--&&--====$$&&%%&&%%$$++##@@++      ",
"      ++@@##++$$%%&&%%$$&&==--&&--====$$&&%%&&%%$$++##@@++      ",
"      ++++####++$$%%&&%%&&$$==&&==$$$$$$%%&&%%$$++####++++      ",
"      ++++####++$$%%&&%%&&$$==&&==$$$$$$%%&&%%$$++####++++      ",
"        ++@@####++$$%%&&%%&&$$&&$$$$%%%%&&%%$$++####@@++        ",
"        ++@@####++$$%%&&%%&&$$&&$$$$%%%%&&%%$$++####@@++        ",
"        ++++@@####++$$%%&&%%%%&&%%%%&&&&%%$$++####@@++++        ",
"        ++++@@####++$$%%&&%%%%&&%%%%&&&&%%$$++####@@++++        ",
"          ++++@@####++$$%%%%&&&&&&&&%%%%$$++####@@++++          ",
"          ++++@@####++$$%%%%&&&&&&&&%%%%$$++####@@++++          ",
"            ++++@@####++++++$$%%%%$$++++++####@@++++            ",
"            ++++@@####++++++$$%%%%$$++++++####@@++++       * *  ",
"              ++++@@########++++++++########@@++++          *   ",
"       *      ++++@@########++++++++########@@++++              ",
"      *         ++++++@@@@############@@@@++++++                ",
"   *  *         ++++++@@@@############@@@@++++++                ",
"    * *             ++++++@@@@@@@@@@@@++++++                    ",
"    *     *         ++++++@@@@@@@@@@@@++++++                    ",
"    *      *        * * ++++++++++++++++   *        * *         ",
"           *         *  ++++++++++++++++   *         *          ",
"           *                               *                    ",
"                                                                ",
"                                                                ",
"                                                                "};
